<svg width="0" height="0" xmlns="http://www.w3.org/2000/svg">
    <defs>
        <symbol id="guilherme-silveira" viewBox="0 0 123 116" fill="none" xmlns="http://www.w3.org/2000/svg">
            <path d="M18.821 53.796c1.76 1.033 4.625.242 6.108-.967 2.567-2.11 3.187-6.297 3.63-9.342.707-4.846 1.791-11.187-1.66-15.22-3.608-4.209-10.434-2.143-14.561.11C5.444 32.113.278 39.74.278 47.62a18.82 18.82 0 0 0 3.685 10.538 19.022 19.022 0 0 0 9.027 6.638c2.002.585 4.134.556 6.118-.084a10.356 10.356 0 0 0 5.002-3.498c3.64-4.715 4.526-11.54 5.19-17.254.31-2.615.497-5.253.663-7.88 0-.494-.133-3.472.387-3.725l-1.615.429c1.107 0 2.213 8.967 2.29 9.77 1.317 8.01 2.213 16.11 2.745 24.176.738 9.51.775 19.059.11 28.573a88.434 88.434 0 0 1-1.826 12.572 51.204 51.204 0 0 1-1.615 5.627c-.166.461-.376 1.747-.951 1.978l1.615-.429c-1.55.187-1.604-12.528-1.616-13.506a153.54 153.54 0 0 1 1.65-26.177 45.742 45.742 0 0 1 2.688-10.495c1.029-2.483 2.434-3.582 4.36-5.275 2.367-2.088 3.606-5.495 4.613-8.374a77.9 77.9 0 0 0 3.187-13.253c1.482-8.99 2.212-18.54.83-27.584-.698-4.473-2.357-9.737-7.9-8.286-5.345 1.407-7.867 6.1-8.653 11.308-1.66 11.067 4.614 22.243 10.943 30.77 3.12 4.22 7.336 7.803 9.792 12.474a7.289 7.289 0 0 1 .797 5.945 6.598 6.598 0 0 1-1.564 2.085 6.648 6.648 0 0 1-2.254 1.322c-.287.132-.586.23-.874.33-.796.275.686-.132-.166 0-.597.132-1.206.22-1.814.308a28.733 28.733 0 0 1-3.64.197c-3.785 0-8.598-.505-11.696-2.89-3.551-2.747 1.992-5.495 4.172-6.352 5.897-2.418 13.974-4.956 19.097.198 2.744 2.77 3.983 7.077 4.337 10.869.11 1.208 3.164.142 3.75-.066 2.347-.836 3.11-4.473 3.586-6.506.354-1.484.144-6.759 1.892-7.693l-1.582.429c2.312-.473 4.425 12.088 4.746 13.934.42 2.198 4.625 2.77 6.185 2.396 7.026-1.692 10.268-8.978 12.868-15.056a70.533 70.533 0 0 0 6.041-30.858c-.232-5.737-2.92-30.66-14.096-24.177-2.522 1.462-3.894 4.736-4.934 7.275a79.123 79.123 0 0 0-4.227 16.88c-1.494 8.901-2.855 18.462 4.79 24.99 9.063 7.77 24.099 7.242 35.263 5.934a64.818 64.818 0 0 0 10.146-1.945c4.15-1.154-5.2-5.033-2.755-6.187l-1.383.363c.41-.099 3.729.132 3.32.44-1.007.659.73-.1-.188.11-.919.208-1.638.33-2.468.46-4.99.858-10.035 1.419-15.07 1.935-12.856 1.33-25.946 2.385-38.88 1.802-2.423-.11-16.94-.714-11.474-6.044 3.729-3.648 9.527-5.649 14.251-7.594 5.72-2.384 11.96-4.461 18.3-4.077 1.804.11 4.526.517 5.533 2.198.088.143 1.549-.538 1.615-.428-1.184-1.99-4.425-2.198-6.461-2.286a37.73 37.73 0 0 0-11.419 1.802c-7.49 2.077-15.8 5.077-22.129 9.682-1.87 1.34-3.994 3.648-1.173 5.198 3.375 1.912 8.177 1.846 11.906 2.01 12.956.54 26.068-.56 38.958-1.911 1.106-.121 20.469-1.846 20.336-3.44-.077-.813-3.684-.22-4.426 0-2.954.791 1.107 3.396 2.213 4.396.277.253 1.439 1.264.764 1.626a3.8 3.8 0 0 1-.62.231c.321-.099-.099 0-.852.176a77.322 77.322 0 0 1-8.398 1.242c-12.569 1.285-32.784 1.143-38.238-13.078-1.782-4.626-1.107-9.572-.41-14.286a101.53 101.53 0 0 1 4.05-18.573c1.04-3.066 2.39-6.472 4.868-8.692.367-.323.772-.6 1.206-.825.708-.362-.952.121-.21 0a3.62 3.62 0 0 1 .597 0c.93.11 1.804.493 2.512 1.1 4.736 3.758 6.108 11.824 6.937 17.363a65.733 65.733 0 0 1-1.626 27.309 74.449 74.449 0 0 1-7.314 17.583c-1.626 2.77-3.75 5.726-6.76 7.121-.885.407 1.339-.175 0 0a6.3 6.3 0 0 1-.642 0 5.57 5.57 0 0 1-1.195-.131 5.835 5.835 0 0 1-1.97-.726 6.511 6.511 0 0 1-1.725-1.615 6.925 6.925 0 0 1-.41-2.044 82.874 82.874 0 0 0-1.106-4.56c-.42-1.517-1.107-6.66-3.065-7.342-1.958-.681-2.644 1.703-2.877 2.846-.686 3.297-.575 10.375-4.658 11.836l1.03-.275h-.2l.586-.142c-1.582.274-1.67-.275-1.847-1.54a19.449 19.449 0 0 0-3.32-8.79c-4.912-6.781-14.262-3.297-20.834-1.22-1.959.626-9.626 3.033-7.27 6.44 1.981 2.846 7.358 3.296 10.445 3.57 6.716.507 19.485-1.549 14.738-10.989-2.334-4.67-6.638-8.33-9.792-12.462A60.73 60.73 0 0 1 33.36 26.3c-2.213-6.847-2.998-15.891 2.091-21.737a9.063 9.063 0 0 1 2.656-2.088c1.04-.539-.078-.165.719-.242a5 5 0 0 1 1.615.132c2.357.505 3.32 2.879 3.972 4.945 2.501 8.055 1.616 17.583.687 25.781-.93 8.199-2.28 17.584-6.728 24.694-1.294 2.088-3.463 3.011-4.824 4.967-1.781 2.55-2.556 5.825-3.23 8.792-1.915 8.473-2.38 17.33-2.457 26.001 0 3.759 0 7.528.266 11.286a20.746 20.746 0 0 0 .918 6.231c.31.781 1.848.352 2.213-.153.852-1.099 1.162-3.001 1.538-4.275a62.512 62.512 0 0 0 1.604-7.122c1.903-10.714 1.804-21.759 1.284-32.562a262.693 262.693 0 0 0-3.021-28.825c-.443-2.704-.896-5.429-1.593-8.078-.399-1.538-.365-1.802-1.914-1.373-1.107.297-.73 2.923-.786 3.835-.221 3.396-.487 6.78-.951 10.144-.83 6.022-2.302 15.385-8.72 18.077-1.239.528-3.319-.132-4.514-.505a15.867 15.867 0 0 1-6.45-4.121A19.383 19.383 0 0 1 1.98 47.686c-.498-7.979 4.935-15.562 11.574-19.529a22.11 22.11 0 0 1 2.279-1.154 17.53 17.53 0 0 1 1.505-.55c-1.107.363.365 0 .664-.087a9.41 9.41 0 0 1 4.48.417c3.962 1.407 4.99 5.495 4.958 9.243 0 4.923-.233 10.45-2.457 14.967a7.04 7.04 0 0 1-2.025 2.594c-.508.374-1.56.516-.077.264a3.23 3.23 0 0 1-1.029 0 3.558 3.558 0 0 1-1.416-.44c-.343-.209-1.295.615-1.616.429v-.044Z"
                  fill="#fff"/>
        </symbol>

        <symbol id="carlos-felicio" viewBox="0 0 184 39" fill="none" xmlns="http://www.w3.org/2000/svg">
            <path fill-rule="evenodd" clip-rule="evenodd"
                  d="M153.749 10.885c-.482.517-.482 2.357 0 2.878.771.13.696-.586 1.601-.32.025-1.413-.054-2.72-1.601-2.558Zm28.808 2.558c.622-.618-.336-1.287-.318-2.236-1.912-.405-2.548 1.765-1.92 2.874 1.233-.064.859-1.507 2.238-.638Zm-33.288 10.545c-2 1.895-5.527.122-8.004-.321-2.26-1.041-1.765-4.843-4.482-5.43 2.252 8.327-9.295 8.77-11.522 3.832.242-.5 1.015-.477.959-1.277-.794-.418-1.33.936-1.601 0 .01-2.658-.145-5.473 1.92-6.072.228 1.265.021 2.96 1.281 3.195.815-2.166.116-5.385-1.922-5.752-2.827 1.239-3.343 7.056-2.56 9.906-4.616 1.572-12.614-.235-16.004 2.557 5.058.136 12.248-.331 16.643-1.918 1.906 4.032 12.765 4.684 14.407 0 2.181 3.687 10.899 1.975 13.124 3.835-1.225-2.187.343-7.16-1.602-8.628-1.562.768-.941 4.371-.637 6.073Zm32.971-1.598c-2.059.68-2.68 1.77-4.802 1.598-2.784-.228-3.333-2.794-5.124-4.155-.77 7.411-9.705 4.541-14.404 2.557.206 2.354 6.189 3.985 9.925 3.516 2.425-.308 3.628-1.834 5.119-2.557 1.447 1.384 5.36 2.782 7.684 1.277 1.139.568.925 2.484 2.559 2.557v-1.277c-1.327-.168-.106-2.878-.957-3.516ZM31.79 26.543C27.162 16.33 36.065 2.846 44.593 1.297c5.137-.932 7.773 2.755 6.724 8.309-1.622 8.577-12.897 13.087-19.527 16.937ZM52.597 8.33c.356-2.836-.272-4.398-1.277-5.781l.002-.002a5.602 5.602 0 0 0-1.078-1.326l-.21-.243-.104.002c-2.744-2.06-6.4-.013-6.4-.013h.015C34.025 4.92 26.06 16.021 30.51 27.5c-3.894 2.001-8.485 4.64-13.124 6.714-4.268 1.908-10.427 4.74-15.366 1.917-.294-1.36 2.113-.022 1.92-1.278-1.007-.778-3.323-.136-3.84.639v.32c.45 1.574 2.042 2.007 3.2 2.874h5.123c8.741-2.138 14.979-6.776 22.728-9.905 1.207 1.15 3.739 3.986 5.76 2.236-1.95-.502-3.76-1.146-4.16-3.195C39.024 23.497 51.418 17.75 52.597 8.33Zm47.373 8.308c.539-4.87 3.131-10.716-.32-13.742-1.063 1.357-2.09 3.47-1.28 5.752 1.25.076.37-1.974 1.28-2.236.228 3.363.02 9.56-2.56 10.226 1.785 2.38-.037 5.067-1.28 7.351-6.474.48-14.814-.369-21.126-.641-.656.517.014 2.358-.64 2.877-5.961 1.098-17.083 3.597-20.807-1.28 3.287-.552 8.823-1.965 12.482-.64 1.588.579 1.647 2.213 3.203 2.24-.119-5.686-14.006-4.264-17.606-1.6 3.306 6.52 16.875 3.732 23.686 2.24.84-.656.667-2.32 1.922-2.555 5.315 1.334 13.271.115 17.926 1.274-.744 1.816-1.818 3.298-1.921 5.755 6.284-.916 3.29-9.122 6.721-12.784 1.185.202 1.906.868 3.52.64-.394-1.628-3.091-.959-3.2-2.877Z"
                  fill="#fff"/>
        </symbol>

        <symbol id="pedro-lopes" viewBox="0 0 204 102" fill="none" xmlns="http://www.w3.org/2000/svg">
            <path d="M62.295 8.12c13.168 1.037 6.157 16.052.874 22.37-8.044 10.974-19.882 18.352-30.412 26.302.413 3.314 1.734 40.232-.183 21.08-.601-6.756-.338-13.618-.592-20.394-.183-1.219-3.378 1.882-4.413 2.056-10.17 6.057-13.335 6.523-.89-.361 1.861-.98 3.603-2.012 5.326-3.393-.314-2.558.06-5.271-.257-7.888.526-4.184-1.174-20.42 1.639-22.037-.56 7.814-.9 16.437-.573 24.554.23 1.041-.909 5.669.827 4.52 10.07-6.812 20.045-14.322 27.89-23.647 17.329-22.603.924-27.677-18.58-16.193-13.634 7.418-25.737 17.385-35.215 29.726-1.229 1.94-2.817 3.666-3.447 5.924-.171 1.122-1.768.565-1.131-.523C13.274 32.572 41.386 8.736 62.295 8.12ZM186.711 41.59c-1.037-1.991-3.323.767-3.773 2.08-6.297 13.22-8.318 28.255-15.859 41.017-.135.71-1.498 1.253-.416 1.954.36.215.595.26.862-.164 2.241-4.629 4.599-9.265 6.423-14.105 3.049-7.892 5.158-16.026 8.085-24.029 2.796-7.235 5.595-9.085 3.033.302-.093.415-.186.83-.116 1.06.074.289.476.209.508-.261.042-.296.087-.532.245-.833 0 0-.003-.059.054-.062.669-1.558 1.555-6.581.954-6.958ZM150.443 77.577c1.562-.086.362 2.38 1.509 3.195.186.224.771.309.157.752-1.89 1.508-3.102-3.693-1.666-3.947ZM144.674 65.367c-.231.012-.527-.088-.656-.316-.064-.113-.064-.113-.08-.405-.016-.292.155-.36.267-.424.897-.576 2.776.902.758 1.13 0 0-.058.002-.289.015ZM137.708 68.497a3.444 3.444 0 0 1-.701-.079c-1.243-.458 1.396-2.066 1.662-.383.019.35-.209.421-.44.434l-.521.028Z"
                  fill="#fff"/>
            <path d="M184.732 50.01c-.035.412-.54 1.785-.64 2.083l-.193.713c-.148.477-.148.477-.393 1.31-.196.654-.753 2.148-.994 3.039.003.058-.039.353-.032.47-.078 1.76.758-.978.964-1.458-.003-.058.103-.24.155-.36.103-.24.206-.479.247-.774.045-.236.139-.651.242-.89.527-.966 1.042-3.218 1.126-3.808.187-.83-.331-.743-.482-.325ZM199.512 69.922c-1.243.594-5.986 8.287-4.371 3.867 3.393-6.916-1.634-4.417-1.993.695.115 2.1-5.26 7.779-2.344 2.761 4.834-9.219 3.868-12.034-3.093-2.464-.298-1.213.647-1.967.641-3.137.354-.956-1.279-1.101-1.282-.106-.023.645-.583 1.027-.724 1.62-1.129 1.642 1.158-3.224-.699-4.293-3.738-4.712-14.424 13.138-7.486 12.7 1.896-.338 2.845-2.087 4.426-2.876 1.501-.14 2.183-1.465 3.124-2.277.987 1.058-6.64 19.677-2.467 14.298 2.175-5.854 3.693-16.297 8.713-18.912-1.142 2.462-2.525 4.761-3.429 7.328-.152 3.578 3.731.322 4.278-1.346.428-.667.859-1.276 1.81-.86 2.792-.913 3.646-5.467 6.346-7.019 2.017 1.88-2.947 8.706-3.97 11.22.876 2.235 1.787-1.268 2.504-1.95 1.816-1.797 5.468-13.527.016-9.25Zm-20.143 4.027c.086 1.575-.621 3.487 1.284 4.378-4.495 5.864-4.296-1.112-1.284-4.378Zm4.01 1.185c-.235 1.008-1.103 2.11-2.009 2.51-2.693-.438 1.228-10.427 1.972-6.37.25 1.39-1.29 2.938.037 3.86Zm1.264-2.351c.267-1.478-.025-2.574-.667-3.71 1.498-.199 1.651 2.602.667 3.71ZM148.594 80.897c-2.248 5.566-3.055-.71-2.28-3.504-1.669-2.952-2.521 4.82-4.06 5.314-2.715-.846.683-5.539-1.27-6.251-2.044.813-1.661 5.709-3.621 5.933-.787-1.654.85-4.612-.139-5.728-1.616-.907-2.281 7.09-3.791 6.001-2.04-2.288 1.095-5.444.238-7.329-2.266-.051-1.673 4.423-3.094 6.022-.31 1.773-3.656 5.292-3.23 1.406 3.228-5.678 5.924-11.561 7.196-18.01 1.656-4.715 2.39-22.08-3.085-8.67a201.378 201.378 0 0 0-4.812 20.221c-.606 3.78-.033 7.904-3.617 10.265-3.136.99-2.853-6.575-1.044-7.434 1.17.17.746-1.212.885-1.863.283-1.186 1.132-2.637.894-3.795-3.061-1.881-5.813 15.71-10.166 12.495-.962-3.81.953-11.23 5.018-12.214.531.147.48-.787.12-1.001-6.69-1.39-10.132 21.624-1.269 12.887.843-.514 1.609-3.483 2.344-2.762-1.306 4.754 4.316 6.788 6.387 2.226.611-.501 2.117 1.582 3.429.106 1.135-.472 1.425-3.649 2.386-3.057.898 2.643 3.064 1.94 3.936-.157 1.3 3.616 2.975 1.36 4.188-.873.737 3.94 3.536 3.143 4.588.1.254 1.45 1.403 4.431 3.408 2.917.618-.385 2.075-4.503.461-3.245Zm-13.873-26.691c-.268 8.91-2.955 18.13-7.36 25.628-.745-1.95 6.116-32.467 7.36-25.628Z"
                  fill="#fff"/>
            <path d="M108.018 69.829c-2.367 4.46-3.581 9.853-3.422 14.877.575.964-.245 1.887-.962 2.57-15.323 11.548-.587-39.417 6.37-40.558-4.031-3.7-9.518 15.855-10.515 17.782-2.304 6.681-3.66 13.72-3.454 20.674.114 5.262 5.955 7.05 8.839 2.502 1.293-1.826 3.184 1.992 5.95-3.661-.935-.125-1.832 1.505-2.614 2.074-4.03 1.625.41-4.178.726-5.834 1.379-2.358 4.491-13.356-.918-10.426Zm-2.493 13.832c-1.106-5.383 6.694-22.958 3.827-7.467-.392 1.309-3.047 9.004-3.827 7.467ZM60.509 77.341c-.234-1.099.705-3.023-.314-3.611-1.88.63-.914 4.498-2.57 6.051-2.083 1.168-1.194-3.797-1.373-4.958-.597-1.372 2.833-20.347-.338-13.619-1.12 3.925.429 11.039-2.634 13.372-4.102-3.932-4.98 12.914-.943 10.352 1.347-.834 1.279-7.386 2.753-5.886.262 2.678 3.472 3.03 4.383.58.334.801.548 2.604 1.641 2.427.39-1.367-.93-3.227-.605-4.708Zm-9.71 4.92c.44-1.487-.575-8.396 2.13-6.671 1.275 1.042-1.625 11.677-2.13 6.672ZM62.565 80.975c-.267 1.478 1.15 2.981 2.618 2.257 1.533-.61 1.608-2.429 2.906-3.085.126-.885.062-2.052.474-3.011.575-7.523-6.756-4.723-5.998 3.84Zm2.934-6.832c-.358 1.95.609 3.712.997 5.505-3.563 6.985-3.318-3.388-.997-5.505Zm1.663 2.835c-.851-.714.105-4.454.274-1.36-.16.242.186 1.277-.274 1.36ZM44.11 77.711c.817-3.088-1.59-8.926-2.82-2.772-.542 2.839 1.844 7.215-1.017 9.01-.228.071-.572.148-.434.55.697 1.075 2.015-.285 2.68-.848.183 1.219 1.24 3.561 2.699 2.662-2.618-2.257-1.81-5.52-1.109-8.602Zm-1.803-.077c.026-.587.069-4.042.64-3.137.42 1.323-.408 7.397-.64 3.137Z"
                  fill="#fff"/>
        </symbol>

        <symbol id="paulo-silveira" xmlns="http://www.w3.org/2000/svg" viewBox="0 0 123 116">
            <path style="stroke:none;fill-rule:nonzero;fill:#fff;fill-opacity:1"
                  d="M98.277 19.879c-.965.05-5.23 4.398-7.672 6.98 0 0-10.058 10.465-10.566 11 .23-1.687.637-13.53 1.727-15.32.257-.437-.176-.973-.633-.77-.637.282-1.168 1.305-1.168 1.305-.61.59-6.3 6.446-8.305 8.34-2.95 2.762-8.129 7.98-8.637 8.543.633-2.098 1.118-13.734 2.258-14.965.281-.305.383-.945.051-1.074-1.191-.434-.582 1.102-1.598 1.844-.382.281-.914.843-1.195 1.199-1.55 1.973-4.621 4.734-6.07 5.55-1.348.72-6.149 2.329-11.176-1.456-.508-.305-1.93 1.23-2.895 2.125-.23.203-1.753 1.457-2.238 1.586-.101.023-.277.125-.406 0-.531-.461.559-2.536 1.066-3.25 1.551-2.149 3.532-4.246 3.125-4.938-.152-.23-.71-.484-1.394.692-1.246 2.097-6.149 5.96-6.149 5.96-1.804 1.43-3.379 2.02-4.875 2.56-2.414.866-8.027 1.687-10.164-.157 6.582-1.992 13.719-4.04 19.457-7.649 1.727-1.097 2.008-2.683 1.375-2.914-.61-.203-1.629.973-2.465 1.563-3.964 2.863-7.214 4.168-11.964 5.726-3.075 1.282 2.515-2.863 3.632-4.476.254-.383.532-.742.813-1.098 9.754-11.742 3.914-37.574-11.559-20.566-.43.488-.863.996-1.242 1.535-6.223 8.39-9.652 17.266-13.437 26.039-1.93 2.965 3.504-26.86 2.894-32.18-.05-.406-.531-.535-.785-.203-2.16 2.863-2.312 24.758-3.734 31.871a54.583 54.583 0 0 0-.356 2.07c-.406 2.97-.914 6.372-1.754 9.212-.18.57-.383 1.132-.61 1.687-.608 1.559-2.26 6.266-1.37 7.543a.497.497 0 0 0 .812-.023c2.59-4.122 2.438-11.817 4.114-15.68.078-.203.18-.41.253-.613 3.153-8.059 6.86-16.91 11.637-24.098.227-.356.457-.738.684-1.125 7.62-13.324 20.906-14.066 17.55 4.531-1.953 9.258-7.593 15.063-15.062 17.8-.71-1.175-.508-2.073-.277-2.558.074-.129.152-.254.203-.359.328-.512.633-.766 1.371-1.305.078-.05.305-.254.71-.46.813-.383 1.856-.356 1.5-1.15-.608-1.05-3.023 1.407-3.862 2.915-.254.387-.735 1.484.152 2.992a29.35 29.35 0 0 1-5.941 1.434 5.644 5.644 0 0 0-.61.129c-3.531 1.125.965 1.382 2.235.894l.457-.152c1.55-.41 4.546-1.512 5.105-1 .152.129.688.46.863.562 3.48 1.844 8.61.028 8.637 0 .406-.152.762-.304 1.117-.484 1.348-.59 3.48-1.61 4.7-2.582.027 0 .027-.027.05-.027 1.551-1.075 5.078-4.067 3.328-1.356-.406.64-1.297 2.711-.586 3.172.993.488 5.055-3.25 5.563-3.352.406.309 1.883 1.024 2.008 1.075 5.968 2.687 10.414-.356 11.61-1.38 1.75-1.355 4.85-4.195 4.85-4.195.075.946-.152 9.899-.84 12.97a50.966 50.966 0 0 1-1.241 1.378c-1.375 1.664-5.59 6.703-2.871 6.652 2.257-.05 3.3-1.304 3.734-2.636.203-.637.254-1.305.355-2.098.075-.535.278-1.406.48-2.273.892-1.203 5.642-6.5 9.958-10.77 3.605-3.582 6.883-6.394 7.187-5.984 0-.028.028-.028.028.023 0-.023-.028-.023-.028-.023-.101.304.13 3.629-.632 13.683-.688.742-7.95 7.211-4.141 7.953 2.539.489 4.57-6.574 4.723-7.57 1.425-1.715 10.414-11.203 15.418-15.91.636-.613 2.718-2.223 2.949-2.531.226-.309-.051-.383-.23-.383ZM62.234 43.664c-.101.77-.175 1.434-.355 2.074-.152.637-1.145 2.352-2.871 2.352-.735-.024-1.7-.024-.176-2.2 1.117-1.558 1.27-1.84 3.656-4.167-.05.613-.175 1.43-.254 1.941Zm13.133 2.328c-.66-.203-.941-.613-.332-1.71.153-.18 1.297-2.098 4.445-4.989-.152.715-1.75 6.957-4.113 6.7Zm0 0"/>
        </symbol>
    </defs>
</svg>