<svg width="600" height="327" viewBox="0 0 600 327" fill="none" xmlns="http://www.w3.org/2000/svg">
<g clip-path="url(#clip0_3330_3479)">
<path d="M480.35 163.019C480.35 146.079 480.42 129.129 480.29 112.179C480.29 109.179 481.09 108.099 484.29 108.109C506.837 108.229 529.39 108.229 551.95 108.109C555.25 108.109 556.33 109.199 556.16 112.389C555.97 116.167 555.97 119.952 556.16 123.729C556.3 126.799 555.09 127.819 552.04 127.799C536.92 127.679 521.79 127.799 506.67 127.669C503.37 127.669 502.5 128.589 502.62 131.809C502.88 138.319 502.82 144.809 502.62 151.359C502.55 153.959 503.37 154.629 505.92 154.599C519.74 154.479 533.56 154.599 547.37 154.479C550.83 154.479 552.06 155.559 551.8 158.969C551.52 162.22 551.52 165.489 551.8 168.739C552.18 172.739 550.46 173.509 546.86 173.459C533.43 173.279 520 173.459 506.57 173.329C503.57 173.329 502.45 173.929 502.57 177.149C502.83 183.149 502.8 189.149 502.57 195.149C502.45 198.149 503.27 199.149 506.44 199.099C521.56 198.919 536.68 199.099 551.8 198.949C555 198.949 556.29 199.839 556.1 203.139C555.88 207.039 555.97 210.959 556.1 214.869C556.17 217.459 555.27 218.629 552.49 218.619C529.67 218.559 506.853 218.559 484.04 218.619C481.04 218.619 480.31 217.439 480.32 214.619C480.39 197.449 480.35 180.229 480.35 163.019Z" fill="#343434"/>
<path d="M427.79 172.761V212.251C427.79 218.571 427.79 218.571 421.28 218.571C417.63 218.571 413.97 218.341 410.34 218.631C406.46 218.941 405.17 217.631 405.2 213.631C405.37 186.531 405.2 159.421 405.38 132.321C405.38 128.561 404.55 127.481 400.74 127.651C393.07 127.981 385.36 127.601 377.68 127.811C374.19 127.901 373.06 126.621 373.26 123.251C373.47 119.477 373.47 115.695 373.26 111.921C373.11 108.921 374.32 108.121 377.15 108.131C403.343 108.211 429.537 108.211 455.73 108.131C459.1 108.131 460.04 109.411 459.9 112.501C459.73 116.141 459.73 119.811 459.9 123.501C460.05 126.661 458.9 127.941 455.62 127.871C447.42 127.701 439.2 127.871 431 127.761C428.46 127.761 427.7 128.421 427.72 131.001C427.85 144.881 427.79 158.821 427.79 172.761Z" fill="#343434"/>
<path d="M204.16 112.03C193.04 118.34 187.61 128.68 184.86 140.51C181.375 155.513 181.375 171.116 184.86 186.12C187.57 197.99 193.3 208.12 204.04 214.71C201.59 218.44 197.5 217.6 193.97 218.25C192.34 218.55 190.63 218.09 188.97 218.45C178.82 218.45 171.86 213.01 166.46 205.11C160.83 196.87 158.01 187.52 156.92 177.73C155.18 162.19 155.44 146.73 161.11 131.86C162.46 128.185 164.253 124.69 166.45 121.45C172.95 112.08 181.45 106.72 193.29 108.38C195.48 109.13 197.85 108.52 200.03 109.27C201.62 109.82 203.64 109.81 204.16 112.03Z" fill="#343434"/>
<path d="M188.98 218.451C194.12 217.681 199.36 217.271 204.05 214.711C216.33 208.921 223.16 199.151 225.32 185.881C226.19 180.511 227.99 179.001 233.32 178.971C238.26 178.971 243.21 178.901 248.15 178.971C251.24 178.971 253.88 180.291 253.39 183.791C251.81 195.001 247.95 205.231 238.76 212.551C233.78 216.402 227.656 218.479 221.36 218.451C210.57 218.651 199.77 218.451 188.98 218.451Z" fill="#BFCD31"/>
<path d="M204.16 112.03C200.88 109.77 196.87 109.67 193.26 108.38C203.537 107.854 213.835 107.877 224.11 108.45C228.366 108.659 232.51 109.887 236.193 112.028C239.877 114.17 242.993 117.165 245.28 120.76C249.246 126.747 251.966 133.47 253.28 140.53C254.19 145.35 252.51 147.43 247.64 147.47C242.77 147.51 238 147.47 233.18 147.47C227.87 147.47 226.18 146.08 225.34 140.88C223.45 129.19 218.04 119.88 207.63 113.73C206.52 113.09 205.32 112.59 204.16 112.03Z" fill="#BFCD31"/>
<path d="M140.38 213.53C134.46 191.824 128.543 170.11 122.63 148.39C119.91 138.49 117.103 128.607 114.21 118.74C112.58 113.18 109.13 109.33 103.07 108.67C95.9387 107.875 88.7412 107.875 81.61 108.67C76.61 109.24 73.27 112.1 71.44 116.73C70.6736 118.662 70.0061 120.631 69.44 122.63C62.94 145.82 56.56 169.03 49.98 192.17C47.75 200 46.26 208.05 42.98 215.56V217.91C48.9 219.32 54.92 218.08 60.86 218.62C63.86 218.9 64.93 217.5 65.62 214.87C67.86 206.45 70.45 198.1 72.55 189.65C73.17 187.21 74.26 186.65 76.55 186.65C87.1166 186.764 97.68 186.764 108.24 186.65C110.42 186.65 111.41 187.21 111.99 189.47C114.16 198.04 116.68 206.47 118.88 215.09C119.55 217.68 120.67 218.74 123.44 218.59C127.87 218.35 132.31 218.54 136.74 218.52C141.45 218.55 141.65 218.2 140.38 213.53ZM103.75 168.45C99.85 168.45 95.94 168.45 92.04 168.45C88.14 168.45 84.45 168.37 80.72 168.45C78.96 168.45 78.42 168.04 78.92 166.22C82.3466 153.987 85.73 141.73 89.07 129.45C89.5 127.87 90.26 126.93 91.99 126.9C93.72 126.87 94.99 127.3 95.53 129.19C98.9 141.59 102.26 153.99 105.71 166.37C106.3 168.45 105.22 168.45 103.75 168.45Z" fill="#343434"/>
<path d="M367.23 213.84C361.27 192 355.307 170.163 349.34 148.33C346.66 138.54 344.09 128.72 341.06 119.04C338.61 111.21 334.86 108.64 326.66 108.36C321.71 108.19 316.74 108.19 311.8 108.36C303.56 108.63 300.03 111.16 297.38 119.03C295.43 124.81 293.88 130.74 292.24 136.63C285.02 162.57 277.88 188.54 270.57 214.45C269.64 217.75 270.47 218.71 273.71 218.61C278.53 218.47 283.37 218.46 288.19 218.61C290.61 218.69 291.58 217.77 292.19 215.47C294.44 206.92 297.02 198.47 299.19 189.89C299.84 187.39 300.9 186.63 303.45 186.66C313.883 186.813 324.317 186.813 334.75 186.66C337.38 186.66 338.28 187.57 338.87 189.98C340.43 196.29 342.29 202.53 344.03 208.8C346.73 218.56 346.72 218.56 356.96 218.56C359.18 218.56 361.4 218.56 363.62 218.56C368.15 218.53 368.45 218.2 367.23 213.84ZM325.02 168.45H305.14C308.14 157.45 311.08 146.69 314.02 135.95C314.53 134.07 315.02 132.19 315.57 130.32C316.12 128.45 316.57 126.87 319.06 126.9C321.55 126.93 322.12 128.31 322.64 130.22C325.38 140.36 328.19 150.49 330.94 160.63C333.06 168.45 333.03 168.45 325.02 168.45Z" fill="#343434"/>
</g>
<defs>
<clipPath id="clip0_3330_3479">
<rect width="513.13" height="110.67" fill="white" transform="translate(43 108)"/>
</clipPath>
</defs>
</svg>
